<svg xmlns="http://www.w3.org/2000/svg" width="20.5" height="20.5" viewBox="0 0 20.5 20.5">
  <g id="api-stroke-rounded" transform="translate(-1.75 -1.75)">
    <path id="Path_28130" data-name="Path 28130" d="M2.5,12c0-4.478,0-6.718,1.391-8.109S7.522,2.5,12,2.5s6.718,0,8.109,1.391S21.5,7.522,21.5,12s0,6.718-1.391,8.109S16.478,21.5,12,21.5s-6.718,0-8.109-1.391S2.5,16.478,2.5,12Z" fill="none" stroke="#53545c" stroke-width="1.5"/>
    <path id="Path_28131" data-name="Path 28131" d="M6,13.5,7.5,9l1.875,4.5M6,13.5,5.5,15M6,13.5H9.375m0,0L10,15" fill="none" stroke="#53545c" stroke-width="1.5"/>
    <path id="Path_28132" data-name="Path 28132" d="M12.5,12V9.7a1.249,1.249,0,0,1,.024-.355.5.5,0,0,1,.321-.321A1.251,1.251,0,0,1,13.2,9h1.3a1.5,1.5,0,0,1,0,3Zm0,0v3" fill="none" stroke="#53545c" stroke-width="1.5"/>
    <path id="Path_28133" data-name="Path 28133" d="M18.5,9v6" fill="none" stroke="#53545c" stroke-width="1.5"/>
  </g>
</svg>
