<svg xmlns="http://www.w3.org/2000/svg" width="20.5" height="20.5" viewBox="0 0 20.5 20.5">
  <g id="artificial-intelligence-08-stroke-rounded" transform="translate(-1.75 -1.75)">
    <path id="Path_28076" data-name="Path 28076" d="M9.6,6.112a.967.967,0,0,1,1.8,0l.911,2.309a5.8,5.8,0,0,0,3.268,3.268l2.309.911a.967.967,0,0,1,0,1.8l-2.309.911a5.8,5.8,0,0,0-3.268,3.268L11.4,20.888a.967.967,0,0,1-1.8,0L8.69,18.578A5.8,5.8,0,0,0,5.422,15.31L3.112,14.4a.967.967,0,0,1,0-1.8l2.309-.911A5.8,5.8,0,0,0,8.69,8.422Z" fill="none" stroke="#5b5c65" stroke-width="1.5"/>
    <path id="Path_28077" data-name="Path 28077" d="M18.163,2.73a.363.363,0,0,1,.675,0l.342.866A2.176,2.176,0,0,0,20.4,4.821l.866.342a.363.363,0,0,1,0,.675l-.866.342A2.176,2.176,0,0,0,19.179,7.4l-.342.866a.363.363,0,0,1-.675,0L17.821,7.4A2.176,2.176,0,0,0,16.6,6.179l-.866-.342a.363.363,0,0,1,0-.675l.866-.342A2.176,2.176,0,0,0,17.821,3.6Z" fill="none" stroke="#5b5c65" stroke-width="1.5"/>
  </g>
</svg>
