<svg width="22.9069" height="22.9069" viewBox="0 0 22.9069 22.9069" fill="none" xmlns="http://www.w3.org/2000/svg">
<path id="api-rounded" d="M11.4535 13.7048L9.20217 11.4535L11.4535 9.20217L13.7048 11.4535L11.4535 13.7048ZM9.06147 7.09158L6.24734 4.27746L9.84942 0.675389C10.0745 0.450259 10.3278 0.281412 10.6092 0.168847C10.8906 0.0562823 11.1721 -2.38418e-07 11.4535 0C11.7349 0 12.0163 0.0562823 12.2977 0.168847C12.5791 0.281412 12.8324 0.450259 13.0575 0.675389L16.6596 4.27746L13.8455 7.09158L11.4535 4.69958L9.06147 7.09158ZM4.27746 16.6596L0.675389 13.0575C0.450259 12.8324 0.281412 12.5791 0.168847 12.2977C0.0562823 12.0163 -2.38418e-07 11.7349 0 11.4535C0 11.1721 0.0562823 10.8906 0.168847 10.6092C0.281412 10.3278 0.450259 10.0745 0.675389 9.84942L4.27746 6.24734L7.09158 9.06147L4.69958 11.4535L7.09158 13.8455L4.27746 16.6596ZM18.6295 16.6596L15.8154 13.8455L18.2074 11.4535L15.8154 9.06147L18.6295 6.24734L22.2315 9.84942C22.4567 10.0745 22.6255 10.3278 22.7381 10.6092C22.8507 10.8906 22.9069 11.1721 22.9069 11.4535C22.9069 11.7349 22.8506 12.0163 22.7381 12.2977C22.6255 12.5791 22.4567 12.8324 22.2315 13.0575L18.6295 16.6596ZM9.84942 22.2315L6.24734 18.6295L9.06147 15.8154L11.4535 18.2074L13.8455 15.8154L16.6596 18.6295L13.0575 22.2315C12.8324 22.4567 12.5791 22.6255 12.2977 22.7381C12.0163 22.8507 11.7349 22.9069 11.4535 22.9069C11.1721 22.9069 10.8906 22.8506 10.6092 22.7381C10.3278 22.6255 10.0745 22.4567 9.84942 22.2315Z" fill="var(--fill-0, black)"/>
</svg>
