<svg width="15.7865" height="11.5002" viewBox="0 0 15.7865 11.5002" fill="none" xmlns="http://www.w3.org/2000/svg">
<g id="text-font-stroke-rounded">
<path id="Path 28186" d="M9.32163 10.75L7.25513 4.85564C6.29555 2.11855 5.81575 0.75 5.03592 0.75C4.25608 0.75 3.77629 2.11855 2.8167 4.85564L0.750204 10.75M2.53592 5.75H7.53592" stroke="var(--stroke-0, black)" stroke-width="1.5" stroke-linecap="round" stroke-linejoin="round"/>
<path id="Path 28187" d="M15.0141 7.13516V10.3494M15.0141 7.13516C15.0478 6.54723 15.0491 6.09937 14.9785 5.7338C14.8121 4.87209 13.9116 4.3528 13.0404 4.24715C12.2064 4.14607 11.5371 4.36073 10.86 5.34737M15.0141 7.13516H12.9829C12.6709 7.13516 12.3561 7.15023 12.0555 7.2338C10.2179 7.74466 10.3526 10.3217 12.1956 10.6393C12.4003 10.6746 12.6093 10.6897 12.8166 10.6804C13.3006 10.6589 13.7471 10.425 14.1304 10.1287C14.5793 9.78144 15.0141 9.2968 15.0141 8.56373V7.13516Z" stroke="var(--stroke-0, black)" stroke-width="1.5" stroke-linecap="round" stroke-linejoin="round"/>
</g>
</svg>
