<svg width="18.0038" height="21.8139" viewBox="0 0 18.0038 21.8139" fill="none" xmlns="http://www.w3.org/2000/svg">
<g id="bulb-ai-fill">
<g id="Path 28541">
</g>
<path id="Path 28542" d="M11.0029 18C11.5552 18 12.0029 18.4477 12.0029 19C12.0029 19.5523 11.5552 20 11.0029 20H7.00293C6.45064 20 6.00293 19.5523 6.00293 19C6.00293 18.4477 6.45064 18 7.00293 18H11.0029ZM9.00293 2.45197e-07C10.1789 2.45197e-07 11.3009 0.228 12.3309 0.638C11.6426 1.99237 12.0715 3.64736 13.3309 4.497L13.4369 4.563L13.4969 4.657C14.0547 5.49554 14.9948 5.99959 16.0019 6C16.5579 6 17.0129 5.851 17.3639 5.672C19.0397 9.88055 17.3264 14.6787 13.3639 16.874C13.2156 16.9565 13.0487 16.9998 12.8789 17H5.12693C4.95719 16.9998 4.79028 16.9565 4.64193 16.874C1.05139 14.8863 -0.739768 10.7214 0.287145 6.74799C1.31406 2.77456 4.89894 -0.000952475 9.00293 2.45197e-07ZM9.00293 5C8.57527 5.00017 8.19506 5.27227 8.05693 5.677L7.92693 6.055C7.62693 6.934 6.93693 7.625 6.05693 7.925L5.67993 8.054C5.27566 8.19253 5.00409 8.57265 5.00409 9C5.00409 9.42735 5.27566 9.80747 5.67993 9.946L6.05793 10.076C6.93693 10.376 7.62793 11.066 7.92793 11.946L8.05693 12.323C8.19546 12.7273 8.57558 12.9988 9.00293 12.9988C9.43028 12.9988 9.8104 12.7273 9.94893 12.323L10.0789 11.945C10.3789 11.066 11.0689 10.375 11.9489 10.075L12.3259 9.946C12.7302 9.80747 13.0018 9.42735 13.0018 9C13.0018 8.57265 12.7302 8.19253 12.3259 8.054L11.9479 7.924C11.0687 7.62386 10.3781 6.93327 10.0779 6.054L9.94893 5.677C9.8108 5.27227 9.43058 5.00017 9.00293 5ZM16.0029 2.45197e-07C16.3639 2.45197e-07 16.6009 0.187 16.6969 0.277C16.8129 0.387 16.8949 0.527 16.9659 0.668C17.0601 0.831885 17.1988 0.965723 17.3659 1.054C17.4989 1.127 17.6229 1.196 17.7299 1.31C18.0932 1.69829 18.0932 2.30171 17.7299 2.69C17.6229 2.804 17.4999 2.873 17.3649 2.946C17.1978 3.03428 17.0591 3.16812 16.9649 3.332C16.8879 3.476 16.8179 3.608 16.6969 3.722C16.3073 4.09153 15.6966 4.09153 15.3069 3.722C15.1869 3.609 15.1169 3.475 15.0399 3.332C14.9458 3.16812 14.8071 3.03428 14.6399 2.946C14.5048 2.88222 14.3816 2.79562 14.2759 2.69C13.913 2.30145 13.9134 1.69802 14.2769 1.31C14.3826 1.20438 14.5058 1.11778 14.6409 1.054C14.8081 0.965722 14.9468 0.831884 15.0409 0.668C15.1169 0.525 15.1879 0.391 15.3079 0.278C15.4029 0.186 15.6409 2.45197e-07 16.0029 2.45197e-07Z" fill="var(--fill-0, black)"/>
</g>
</svg>
