<svg width="21.712" height="21.712" viewBox="0 0 21.712 21.712" fill="none" xmlns="http://www.w3.org/2000/svg">
<path id="path799" d="M10.0851 0C15.6413 0 20.1651 4.52897 20.1651 10.0851C20.1651 12.5843 19.2462 14.8696 17.7329 16.6338L21.712 20.6129L20.6129 21.712L16.6338 17.7329C14.8696 19.2462 12.5843 20.1651 10.0851 20.1651C4.52897 20.1651 0 15.6412 0 10.0851C0 4.52897 4.52897 0 10.0851 0ZM10.0851 1.55704C5.36679 1.55704 1.55704 5.3668 1.55704 10.0851C1.55704 14.8034 5.36681 18.6081 10.0851 18.6081C14.8034 18.6081 18.6081 14.8034 18.6081 10.0851C18.6081 5.3668 14.8034 1.55704 10.0851 1.55704Z" fill="var(--fill-0, #5B5C65)"/>
</svg>
