<svg width="18.5" height="18.4981" viewBox="0 0 18.5 18.4981" fill="none" xmlns="http://www.w3.org/2000/svg">
<path id="setting-filled" fill-rule="evenodd" clip-rule="evenodd" d="M7.76038 0.000215669H10.7068C11.1507 -0.00639055 11.5854 0.138948 11.9356 0.412448C12.2883 0.689911 12.5328 1.07968 12.6226 1.51834L12.8803 2.75371C12.9921 2.81361 13.1022 2.87527 13.2106 2.93869L14.4592 2.5291C14.9784 2.3615 15.5441 2.4185 16.0196 2.68633C16.3102 2.85017 16.5547 3.08535 16.7251 3.37338L18.2115 5.82564C18.7084 6.61135 18.5499 7.64308 17.8402 8.24353L17.8376 8.24353L16.8572 9.07989V9.42077L17.8257 10.2836C18.5208 10.8735 18.6869 11.8798 18.2181 12.6618L16.778 15.1194V15.122C16.4293 15.7054 15.7994 16.0622 15.1198 16.0614C14.9132 16.0625 14.7077 16.0313 14.5107 15.9689L14.5041 15.9663L13.2661 15.558C13.156 15.6232 13.0441 15.6853 12.9305 15.7443L12.6741 16.9784C12.5837 17.4172 12.3401 17.8097 11.9871 18.0856C11.6361 18.3602 11.2013 18.5058 10.7557 18.4978L7.78549 18.4978C7.34078 18.5051 6.90702 18.3596 6.55672 18.0856C6.20391 17.81 5.96043 17.4181 5.86966 16.9797L5.61202 15.743C5.50046 15.684 5.39032 15.6223 5.28171 15.558L4.03312 15.9676C3.51383 16.1352 2.94813 16.0782 2.47271 15.8104C2.18164 15.648 1.93834 15.412 1.76716 15.126L0.279428 12.6684C-0.196742 11.8999 -0.0524541 10.9005 0.621633 10.2981L1.60861 9.05346L0.666556 8.21447C-0.0295522 7.62385 -0.195133 6.61582 0.275464 5.83356L0.278106 5.83092L1.76716 3.37338C2.1107 2.79554 2.73196 2.44003 3.4042 2.43661C3.60327 2.42604 3.79969 2.44498 3.99348 2.49343L4.02255 2.50136L5.25792 2.93605C5.36626 2.87263 5.47637 2.81185 5.58824 2.75372L5.84456 1.51966C5.93504 1.0808 6.17854 0.688371 6.53161 0.412449C6.88042 0.138949 7.31644 -0.00639067 7.76038 0.000215669ZM9.24944 6.6065C7.79002 6.6065 6.60692 7.78959 6.60692 9.24901C6.60692 10.7084 7.79002 11.8915 9.24944 11.8915C10.7089 11.8915 11.892 10.7084 11.892 9.24901C11.892 7.78959 10.7089 6.6065 9.24944 6.6065ZM5.28567 9.24901C5.28567 7.05988 7.06031 5.28524 9.24944 5.28524C11.4386 5.28524 13.2132 7.05988 13.2132 9.24901C13.2132 11.4381 11.4386 13.2128 9.24944 13.2128C7.06031 13.2128 5.28567 11.4381 5.28567 9.24901Z" fill="var(--fill-0, black)"/>
</svg>
